<svg xmlns="http://www.w3.org/2000/svg" xmlns:xlink="http://www.w3.org/1999/xlink" width="3516" height="3689" viewBox="0 0 3516 3689"><defs><clipPath id="b"><rect width="3516" height="3689"/></clipPath></defs><g id="a" clip-path="url(#b)"><rect width="3516" height="3689" fill="rgba(255,255,255,0)"/><g transform="translate(327.92 363)"><path d="M322.027,1493.247c0-325.531,125.378-630.532,353.019-858.8l-.25-.256c224.368-224.056,518.786-347.472,829.348-347.472,651.524,0,1181.578,540.6,1181.578,1205.1,0,311.076-124.19,618.967-340.767,845.784l-.179-.179c-223.81,232.175-522.855,360.051-842.034,360.051-651.047,0-1180.716-540.22-1180.716-1204.229ZM1502.743,136.239c733.65,0,1330.522,608.759,1330.522,1357.011,0,351.543-130.868,683.266-368.44,936.867l-91.009-92.812-8.8,8.979c216.867-230.122,341.167-540.62,341.167-854.461,0-676-539.237-1225.978-1202.041-1225.978-311.591,0-607.046,122.262-834.039,344.227l5.107-5.2-91.043-92.86C832.815,269.708,1158.046,136.239,1502.743,136.239ZM2963.621,2938.823l-469.829-479.169c245.289-261.5,380.411-603.712,380.411-966.411,0-771.294-615.224-1398.767-1371.457-1398.767-355.608,0-691.135,137.8-947.528,388.007L157.835,77.168,128.89,106.69,631.974,619.816c-226.267,234.46-350.882,543.652-350.882,873.433,0,687.026,548.04,1245.976,1221.651,1245.976,323.342,0,626.5-127.1,856.379-357.868l575.547,586.99,28.951-29.522" transform="translate(-128.89 -77.168)"/></g><g transform="translate(751.614 1329.983)"><text transform="translate(0.386 638.017)" fill="#ff546b" font-size="964" font-family="SaintCarellPERSONAL-Regular, Saint Carell PERSONAL" letter-spacing="0.015em"><tspan x="0" y="0">N</tspan></text><text transform="translate(868.386 311.017)" font-size="279" font-family="against-Regular, against" letter-spacing="0.015em"><tspan x="0" y="0">uys</tspan></text><text transform="translate(1370.387 666.017)" font-size="245" font-family="CoronaRealDemoScript, Corona Real Demo" letter-spacing="0.015em"><tspan x="0" y="0">log</tspan></text><text transform="translate(872.691 719.428)" fill="#53bbef" font-size="508" font-family="SaintCarellPERSONAL-Regular, Saint Carell PERSONAL" letter-spacing="0.015em"><tspan x="0" y="0">B</tspan></text></g><text transform="translate(304 2662)" fill="#878787" font-size="262" font-family="CoronaRealDemoScript, Corona Real Demo" letter-spacing="0.015em"><tspan x="0" y="0">Raisul Rafi</tspan></text></g></svg>